<?xml version="1.0" encoding="UTF-8" standalone="no"?>
<!DOCTYPE svg PUBLIC "-//W3C//DTD SVG 1.1//EN"
 "http://www.w3.org/Graphics/SVG/1.1/DTD/svg11.dtd">
<!-- Generated by graphviz version 2.28.0 (20120326.2350)
 -->
<!-- Title: controllers_diagram Pages: 1 -->
<svg width="921pt" height="877pt"
 viewBox="0.00 0.00 921.00 877.00" xmlns="http://www.w3.org/2000/svg" xmlns:xlink="http://www.w3.org/1999/xlink">
<g id="graph1" class="graph" transform="scale(1 1) rotate(0) translate(4 873)">
<title>controllers_diagram</title>
<polygon fill="white" stroke="white" points="-4,5 -4,-873 918,-873 918,5 -4,5"/>
<!-- _diagram_info -->
<g id="node1" class="node"><title>_diagram_info</title>
<text text-anchor="start" x="440" y="-801.6" font-family="Times,serif" font-size="13.00">Controllers diagram</text>
<text text-anchor="start" x="440" y="-787.6" font-family="Times,serif" font-size="13.00">Date: Mar 27 2012 &#45; 02:08</text>
<text text-anchor="start" x="440" y="-773.6" font-family="Times,serif" font-size="13.00">Migration version: 20120326222820</text>
<text text-anchor="start" x="440" y="-759.6" font-family="Times,serif" font-size="13.00">Generated by RailRoady 1.0.7</text>
<text text-anchor="start" x="440" y="-745.6" font-family="Times,serif" font-size="13.00">http://railroady.prestonlee.com</text>
</g>
<!-- AddressController -->
<g id="node2" class="node"><title>AddressController</title>
<polyline fill="none" stroke="black" points="102,-108.5 287,-108.5 "/>
<path fill="none" stroke="black" d="M287,-108.5C293,-108.5 299,-114.5 299,-120.5"/>
<polyline fill="none" stroke="black" points="299,-120.5 299,-234.5 "/>
<path fill="none" stroke="black" d="M299,-234.5C299,-240.5 293,-246.5 287,-246.5"/>
<polyline fill="none" stroke="black" points="287,-246.5 102,-246.5 "/>
<path fill="none" stroke="black" d="M102,-246.5C96,-246.5 90,-240.5 90,-234.5"/>
<polyline fill="none" stroke="black" points="90,-234.5 90,-120.5 "/>
<path fill="none" stroke="black" d="M90,-120.5C90,-114.5 96,-108.5 102,-108.5"/>
<text text-anchor="middle" x="194.5" y="-231.3" font-family="Times,serif" font-size="14.00">AddressController</text>
<polyline fill="none" stroke="black" points="90,-223.5 299,-223.5 "/>
<text text-anchor="start" x="98" y="-208.3" font-family="Times,serif" font-size="14.00">_one_time_conditions_valid_68?</text>
<text text-anchor="start" x="98" y="-193.3" font-family="Times,serif" font-size="14.00">_one_time_conditions_valid_70?</text>
<text text-anchor="start" x="98" y="-178.3" font-family="Times,serif" font-size="14.00">create</text>
<text text-anchor="start" x="98" y="-163.3" font-family="Times,serif" font-size="14.00">update</text>
<polyline fill="none" stroke="black" points="90,-155.5 299,-155.5 "/>
<polyline fill="none" stroke="black" points="90,-131.5 299,-131.5 "/>
<text text-anchor="start" x="98" y="-116.3" font-family="Times,serif" font-size="14.00">_layout</text>
</g>
<!-- Admin::AdminUsersController -->
<g id="node3" class="node"><title>Admin::AdminUsersController</title>
<polyline fill="none" stroke="black" points="48,-486.5 221,-486.5 "/>
<path fill="none" stroke="black" d="M221,-486.5C227,-486.5 233,-492.5 233,-498.5"/>
<polyline fill="none" stroke="black" points="233,-498.5 233,-568.5 "/>
<path fill="none" stroke="black" d="M233,-568.5C233,-574.5 227,-580.5 221,-580.5"/>
<polyline fill="none" stroke="black" points="221,-580.5 48,-580.5 "/>
<path fill="none" stroke="black" d="M48,-580.5C42,-580.5 36,-574.5 36,-568.5"/>
<polyline fill="none" stroke="black" points="36,-568.5 36,-498.5 "/>
<path fill="none" stroke="black" d="M36,-498.5C36,-492.5 42,-486.5 48,-486.5"/>
<text text-anchor="middle" x="134.5" y="-565.3" font-family="Times,serif" font-size="14.00">Admin::AdminUsersController</text>
<polyline fill="none" stroke="black" points="36,-557.5 233,-557.5 "/>
<polyline fill="none" stroke="black" points="36,-533.5 233,-533.5 "/>
<polyline fill="none" stroke="black" points="36,-509.5 233,-509.5 "/>
<text text-anchor="start" x="44" y="-494.3" font-family="Times,serif" font-size="14.00">_layout</text>
</g>
<!-- Admin::AvailabilitiesController -->
<g id="node4" class="node"><title>Admin::AvailabilitiesController</title>
<polyline fill="none" stroke="black" points="642,-126.5 817,-126.5 "/>
<path fill="none" stroke="black" d="M817,-126.5C823,-126.5 829,-132.5 829,-138.5"/>
<polyline fill="none" stroke="black" points="829,-138.5 829,-208.5 "/>
<path fill="none" stroke="black" d="M829,-208.5C829,-214.5 823,-220.5 817,-220.5"/>
<polyline fill="none" stroke="black" points="817,-220.5 642,-220.5 "/>
<path fill="none" stroke="black" d="M642,-220.5C636,-220.5 630,-214.5 630,-208.5"/>
<polyline fill="none" stroke="black" points="630,-208.5 630,-138.5 "/>
<path fill="none" stroke="black" d="M630,-138.5C630,-132.5 636,-126.5 642,-126.5"/>
<text text-anchor="middle" x="729.5" y="-205.3" font-family="Times,serif" font-size="14.00">Admin::AvailabilitiesController</text>
<polyline fill="none" stroke="black" points="630,-197.5 829,-197.5 "/>
<polyline fill="none" stroke="black" points="630,-173.5 829,-173.5 "/>
<polyline fill="none" stroke="black" points="630,-149.5 829,-149.5 "/>
<text text-anchor="start" x="638" y="-134.3" font-family="Times,serif" font-size="14.00">_layout</text>
</g>
<!-- Admin::DishSamplesController -->
<g id="node5" class="node"><title>Admin::DishSamplesController</title>
<polyline fill="none" stroke="black" points="210,-738.5 386,-738.5 "/>
<path fill="none" stroke="black" d="M386,-738.5C392,-738.5 398,-744.5 398,-750.5"/>
<polyline fill="none" stroke="black" points="398,-750.5 398,-820.5 "/>
<path fill="none" stroke="black" d="M398,-820.5C398,-826.5 392,-832.5 386,-832.5"/>
<polyline fill="none" stroke="black" points="386,-832.5 210,-832.5 "/>
<path fill="none" stroke="black" d="M210,-832.5C204,-832.5 198,-826.5 198,-820.5"/>
<polyline fill="none" stroke="black" points="198,-820.5 198,-750.5 "/>
<path fill="none" stroke="black" d="M198,-750.5C198,-744.5 204,-738.5 210,-738.5"/>
<text text-anchor="middle" x="298" y="-817.3" font-family="Times,serif" font-size="14.00">Admin::DishSamplesController</text>
<polyline fill="none" stroke="black" points="198,-809.5 398,-809.5 "/>
<polyline fill="none" stroke="black" points="198,-785.5 398,-785.5 "/>
<polyline fill="none" stroke="black" points="198,-761.5 398,-761.5 "/>
<text text-anchor="start" x="206" y="-746.3" font-family="Times,serif" font-size="14.00">_layout</text>
</g>
<!-- Admin::DishesController -->
<g id="node6" class="node"><title>Admin::DishesController</title>
<polyline fill="none" stroke="black" points="12,-774.5 151,-774.5 "/>
<path fill="none" stroke="black" d="M151,-774.5C157,-774.5 163,-780.5 163,-786.5"/>
<polyline fill="none" stroke="black" points="163,-786.5 163,-856.5 "/>
<path fill="none" stroke="black" d="M163,-856.5C163,-862.5 157,-868.5 151,-868.5"/>
<polyline fill="none" stroke="black" points="151,-868.5 12,-868.5 "/>
<path fill="none" stroke="black" d="M12,-868.5C6,-868.5 0,-862.5 0,-856.5"/>
<polyline fill="none" stroke="black" points="0,-856.5 0,-786.5 "/>
<path fill="none" stroke="black" d="M0,-786.5C0,-780.5 6,-774.5 12,-774.5"/>
<text text-anchor="middle" x="81.5" y="-853.3" font-family="Times,serif" font-size="14.00">Admin::DishesController</text>
<polyline fill="none" stroke="black" points="0,-845.5 163,-845.5 "/>
<polyline fill="none" stroke="black" points="0,-821.5 163,-821.5 "/>
<polyline fill="none" stroke="black" points="0,-797.5 163,-797.5 "/>
<text text-anchor="start" x="8" y="-782.3" font-family="Times,serif" font-size="14.00">_layout</text>
</g>
<!-- Admin::MenusController -->
<g id="node7" class="node"><title>Admin::MenusController</title>
<polyline fill="none" stroke="black" points="390,-0.5 530,-0.5 "/>
<path fill="none" stroke="black" d="M530,-0.5C536,-0.5 542,-6.5 542,-12.5"/>
<polyline fill="none" stroke="black" points="542,-12.5 542,-82.5 "/>
<path fill="none" stroke="black" d="M542,-82.5C542,-88.5 536,-94.5 530,-94.5"/>
<polyline fill="none" stroke="black" points="530,-94.5 390,-94.5 "/>
<path fill="none" stroke="black" d="M390,-94.5C384,-94.5 378,-88.5 378,-82.5"/>
<polyline fill="none" stroke="black" points="378,-82.5 378,-12.5 "/>
<path fill="none" stroke="black" d="M378,-12.5C378,-6.5 384,-0.5 390,-0.5"/>
<text text-anchor="middle" x="460" y="-79.3" font-family="Times,serif" font-size="14.00">Admin::MenusController</text>
<polyline fill="none" stroke="black" points="378,-71.5 542,-71.5 "/>
<polyline fill="none" stroke="black" points="378,-47.5 542,-47.5 "/>
<polyline fill="none" stroke="black" points="378,-23.5 542,-23.5 "/>
<text text-anchor="start" x="386" y="-8.3" font-family="Times,serif" font-size="14.00">_layout</text>
</g>
<!-- Admin::TablesController -->
<g id="node8" class="node"><title>Admin::TablesController</title>
<polyline fill="none" stroke="black" points="588,-0.5 725,-0.5 "/>
<path fill="none" stroke="black" d="M725,-0.5C731,-0.5 737,-6.5 737,-12.5"/>
<polyline fill="none" stroke="black" points="737,-12.5 737,-82.5 "/>
<path fill="none" stroke="black" d="M737,-82.5C737,-88.5 731,-94.5 725,-94.5"/>
<polyline fill="none" stroke="black" points="725,-94.5 588,-94.5 "/>
<path fill="none" stroke="black" d="M588,-94.5C582,-94.5 576,-88.5 576,-82.5"/>
<polyline fill="none" stroke="black" points="576,-82.5 576,-12.5 "/>
<path fill="none" stroke="black" d="M576,-12.5C576,-6.5 582,-0.5 588,-0.5"/>
<text text-anchor="middle" x="656.5" y="-79.3" font-family="Times,serif" font-size="14.00">Admin::TablesController</text>
<polyline fill="none" stroke="black" points="576,-71.5 737,-71.5 "/>
<polyline fill="none" stroke="black" points="576,-47.5 737,-47.5 "/>
<polyline fill="none" stroke="black" points="576,-23.5 737,-23.5 "/>
<text text-anchor="start" x="584" y="-8.3" font-family="Times,serif" font-size="14.00">_layout</text>
</g>
<!-- Admin::UserTablesController -->
<g id="node9" class="node"><title>Admin::UserTablesController</title>
<polyline fill="none" stroke="black" points="696,-702.5 860,-702.5 "/>
<path fill="none" stroke="black" d="M860,-702.5C866,-702.5 872,-708.5 872,-714.5"/>
<polyline fill="none" stroke="black" points="872,-714.5 872,-784.5 "/>
<path fill="none" stroke="black" d="M872,-784.5C872,-790.5 866,-796.5 860,-796.5"/>
<polyline fill="none" stroke="black" points="860,-796.5 696,-796.5 "/>
<path fill="none" stroke="black" d="M696,-796.5C690,-796.5 684,-790.5 684,-784.5"/>
<polyline fill="none" stroke="black" points="684,-784.5 684,-714.5 "/>
<path fill="none" stroke="black" d="M684,-714.5C684,-708.5 690,-702.5 696,-702.5"/>
<text text-anchor="middle" x="778" y="-781.3" font-family="Times,serif" font-size="14.00">Admin::UserTablesController</text>
<polyline fill="none" stroke="black" points="684,-773.5 872,-773.5 "/>
<polyline fill="none" stroke="black" points="684,-749.5 872,-749.5 "/>
<polyline fill="none" stroke="black" points="684,-725.5 872,-725.5 "/>
<text text-anchor="start" x="692" y="-710.3" font-family="Times,serif" font-size="14.00">_layout</text>
</g>
<!-- Admin::UsersController -->
<g id="node10" class="node"><title>Admin::UsersController</title>
<polyline fill="none" stroke="black" points="84,-360.5 217,-360.5 "/>
<path fill="none" stroke="black" d="M217,-360.5C223,-360.5 229,-366.5 229,-372.5"/>
<polyline fill="none" stroke="black" points="229,-372.5 229,-442.5 "/>
<path fill="none" stroke="black" d="M229,-442.5C229,-448.5 223,-454.5 217,-454.5"/>
<polyline fill="none" stroke="black" points="217,-454.5 84,-454.5 "/>
<path fill="none" stroke="black" d="M84,-454.5C78,-454.5 72,-448.5 72,-442.5"/>
<polyline fill="none" stroke="black" points="72,-442.5 72,-372.5 "/>
<path fill="none" stroke="black" d="M72,-372.5C72,-366.5 78,-360.5 84,-360.5"/>
<text text-anchor="middle" x="150.5" y="-439.3" font-family="Times,serif" font-size="14.00">Admin::UsersController</text>
<polyline fill="none" stroke="black" points="72,-431.5 229,-431.5 "/>
<polyline fill="none" stroke="black" points="72,-407.5 229,-407.5 "/>
<polyline fill="none" stroke="black" points="72,-383.5 229,-383.5 "/>
<text text-anchor="start" x="80" y="-368.3" font-family="Times,serif" font-size="14.00">_layout</text>
</g>
<!-- ApplicationController -->
<g id="node11" class="node"><title>ApplicationController</title>
<polyline fill="none" stroke="black" points="390,-126.5 575,-126.5 "/>
<path fill="none" stroke="black" d="M575,-126.5C581,-126.5 587,-132.5 587,-138.5"/>
<polyline fill="none" stroke="black" points="587,-138.5 587,-206.5 "/>
<path fill="none" stroke="black" d="M587,-206.5C587,-212.5 581,-218.5 575,-218.5"/>
<polyline fill="none" stroke="black" points="575,-218.5 390,-218.5 "/>
<path fill="none" stroke="black" d="M390,-218.5C384,-218.5 378,-212.5 378,-206.5"/>
<polyline fill="none" stroke="black" points="378,-206.5 378,-138.5 "/>
<path fill="none" stroke="black" d="M378,-138.5C378,-132.5 384,-126.5 390,-126.5"/>
<text text-anchor="middle" x="482.5" y="-203.3" font-family="Times,serif" font-size="14.00">ApplicationController</text>
<polyline fill="none" stroke="black" points="378,-195.5 587,-195.5 "/>
<text text-anchor="start" x="386" y="-180.3" font-family="Times,serif" font-size="14.00">_one_time_conditions_valid_66?</text>
<polyline fill="none" stroke="black" points="378,-172.5 587,-172.5 "/>
<text text-anchor="start" x="386" y="-157.3" font-family="Times,serif" font-size="14.00">table_belongs_to_user?</text>
<polyline fill="none" stroke="black" points="378,-149.5 587,-149.5 "/>
<text text-anchor="start" x="386" y="-134.3" font-family="Times,serif" font-size="14.00">_layout</text>
</g>
<!-- AvailabilityController -->
<g id="node12" class="node"><title>AvailabilityController</title>
<polyline fill="none" stroke="black" points="282,-540.5 475,-540.5 "/>
<path fill="none" stroke="black" d="M475,-540.5C481,-540.5 487,-546.5 487,-552.5"/>
<polyline fill="none" stroke="black" points="487,-552.5 487,-695.5 "/>
<path fill="none" stroke="black" d="M487,-695.5C487,-701.5 481,-707.5 475,-707.5"/>
<polyline fill="none" stroke="black" points="475,-707.5 282,-707.5 "/>
<path fill="none" stroke="black" d="M282,-707.5C276,-707.5 270,-701.5 270,-695.5"/>
<polyline fill="none" stroke="black" points="270,-695.5 270,-552.5 "/>
<path fill="none" stroke="black" d="M270,-552.5C270,-546.5 276,-540.5 282,-540.5"/>
<text text-anchor="middle" x="378.5" y="-692.3" font-family="Times,serif" font-size="14.00">AvailabilityController</text>
<polyline fill="none" stroke="black" points="270,-684.5 487,-684.5 "/>
<text text-anchor="start" x="278" y="-669.3" font-family="Times,serif" font-size="14.00">_one_time_conditions_valid_264?</text>
<text text-anchor="start" x="278" y="-654.3" font-family="Times,serif" font-size="14.00">_one_time_conditions_valid_266?</text>
<text text-anchor="start" x="278" y="-639.3" font-family="Times,serif" font-size="14.00">create</text>
<text text-anchor="start" x="278" y="-624.3" font-family="Times,serif" font-size="14.00">delete</text>
<text text-anchor="start" x="278" y="-609.3" font-family="Times,serif" font-size="14.00">read</text>
<text text-anchor="start" x="278" y="-594.3" font-family="Times,serif" font-size="14.00">update</text>
<polyline fill="none" stroke="black" points="270,-586.5 487,-586.5 "/>
<text text-anchor="start" x="278" y="-571.3" font-family="Times,serif" font-size="14.00">load_menu</text>
<polyline fill="none" stroke="black" points="270,-563.5 487,-563.5 "/>
<text text-anchor="start" x="278" y="-548.3" font-family="Times,serif" font-size="14.00">_layout</text>
</g>
<!-- DishDashboardController -->
<g id="node13" class="node"><title>DishDashboardController</title>
<polyline fill="none" stroke="black" points="534,-252.5 727,-252.5 "/>
<path fill="none" stroke="black" d="M727,-252.5C733,-252.5 739,-258.5 739,-264.5"/>
<polyline fill="none" stroke="black" points="739,-264.5 739,-423.5 "/>
<path fill="none" stroke="black" d="M739,-423.5C739,-429.5 733,-435.5 727,-435.5"/>
<polyline fill="none" stroke="black" points="727,-435.5 534,-435.5 "/>
<path fill="none" stroke="black" d="M534,-435.5C528,-435.5 522,-429.5 522,-423.5"/>
<polyline fill="none" stroke="black" points="522,-423.5 522,-264.5 "/>
<path fill="none" stroke="black" d="M522,-264.5C522,-258.5 528,-252.5 534,-252.5"/>
<text text-anchor="middle" x="630.5" y="-420.3" font-family="Times,serif" font-size="14.00">DishDashboardController</text>
<polyline fill="none" stroke="black" points="522,-412.5 739,-412.5 "/>
<text text-anchor="start" x="530" y="-397.3" font-family="Times,serif" font-size="14.00">_one_time_conditions_valid_268?</text>
<text text-anchor="start" x="530" y="-382.3" font-family="Times,serif" font-size="14.00">_one_time_conditions_valid_270?</text>
<text text-anchor="start" x="530" y="-367.3" font-family="Times,serif" font-size="14.00">create</text>
<text text-anchor="start" x="530" y="-352.3" font-family="Times,serif" font-size="14.00">destroy</text>
<text text-anchor="start" x="530" y="-337.3" font-family="Times,serif" font-size="14.00">edit</text>
<text text-anchor="start" x="530" y="-322.3" font-family="Times,serif" font-size="14.00">index</text>
<text text-anchor="start" x="530" y="-307.3" font-family="Times,serif" font-size="14.00">update</text>
<polyline fill="none" stroke="black" points="522,-299.5 739,-299.5 "/>
<polyline fill="none" stroke="black" points="522,-275.5 739,-275.5 "/>
<text text-anchor="start" x="530" y="-260.3" font-family="Times,serif" font-size="14.00">_layout</text>
</g>
<!-- HomeController -->
<g id="node14" class="node"><title>HomeController</title>
<polyline fill="none" stroke="black" points="786,-0.5 874,-0.5 "/>
<path fill="none" stroke="black" d="M874,-0.5C880,-0.5 886,-6.5 886,-12.5"/>
<polyline fill="none" stroke="black" points="886,-12.5 886,-81.5 "/>
<path fill="none" stroke="black" d="M886,-81.5C886,-87.5 880,-93.5 874,-93.5"/>
<polyline fill="none" stroke="black" points="874,-93.5 786,-93.5 "/>
<path fill="none" stroke="black" d="M786,-93.5C780,-93.5 774,-87.5 774,-81.5"/>
<polyline fill="none" stroke="black" points="774,-81.5 774,-12.5 "/>
<path fill="none" stroke="black" d="M774,-12.5C774,-6.5 780,-0.5 786,-0.5"/>
<text text-anchor="middle" x="830" y="-78.3" font-family="Times,serif" font-size="14.00">HomeController</text>
<polyline fill="none" stroke="black" points="774,-70.5 886,-70.5 "/>
<text text-anchor="start" x="782" y="-55.3" font-family="Times,serif" font-size="14.00">index</text>
<polyline fill="none" stroke="black" points="774,-47.5 886,-47.5 "/>
<polyline fill="none" stroke="black" points="774,-23.5 886,-23.5 "/>
<text text-anchor="start" x="782" y="-8.3" font-family="Times,serif" font-size="14.00">_layout</text>
</g>
<!-- MenuDashboardController -->
<g id="node15" class="node"><title>MenuDashboardController</title>
<polyline fill="none" stroke="black" points="534,-468.5 727,-468.5 "/>
<path fill="none" stroke="black" d="M727,-468.5C733,-468.5 739,-474.5 739,-480.5"/>
<polyline fill="none" stroke="black" points="739,-480.5 739,-654.5 "/>
<path fill="none" stroke="black" d="M739,-654.5C739,-660.5 733,-666.5 727,-666.5"/>
<polyline fill="none" stroke="black" points="727,-666.5 534,-666.5 "/>
<path fill="none" stroke="black" d="M534,-666.5C528,-666.5 522,-660.5 522,-654.5"/>
<polyline fill="none" stroke="black" points="522,-654.5 522,-480.5 "/>
<path fill="none" stroke="black" d="M522,-480.5C522,-474.5 528,-468.5 534,-468.5"/>
<text text-anchor="middle" x="630.5" y="-651.3" font-family="Times,serif" font-size="14.00">MenuDashboardController</text>
<polyline fill="none" stroke="black" points="522,-643.5 739,-643.5 "/>
<text text-anchor="start" x="530" y="-628.3" font-family="Times,serif" font-size="14.00">_one_time_conditions_valid_272?</text>
<text text-anchor="start" x="530" y="-613.3" font-family="Times,serif" font-size="14.00">_one_time_conditions_valid_274?</text>
<text text-anchor="start" x="530" y="-598.3" font-family="Times,serif" font-size="14.00">create</text>
<text text-anchor="start" x="530" y="-583.3" font-family="Times,serif" font-size="14.00">destroy</text>
<text text-anchor="start" x="530" y="-568.3" font-family="Times,serif" font-size="14.00">edit</text>
<text text-anchor="start" x="530" y="-553.3" font-family="Times,serif" font-size="14.00">index</text>
<text text-anchor="start" x="530" y="-538.3" font-family="Times,serif" font-size="14.00">new</text>
<text text-anchor="start" x="530" y="-523.3" font-family="Times,serif" font-size="14.00">update</text>
<polyline fill="none" stroke="black" points="522,-515.5 739,-515.5 "/>
<polyline fill="none" stroke="black" points="522,-491.5 739,-491.5 "/>
<text text-anchor="start" x="530" y="-476.3" font-family="Times,serif" font-size="14.00">_layout</text>
</g>
<!-- Misc::DishSampleController -->
<g id="node16" class="node"><title>Misc::DishSampleController</title>
<polyline fill="none" stroke="black" points="48,-612.5 224,-612.5 "/>
<path fill="none" stroke="black" d="M224,-612.5C230,-612.5 236,-618.5 236,-624.5"/>
<polyline fill="none" stroke="black" points="236,-624.5 236,-693.5 "/>
<path fill="none" stroke="black" d="M236,-693.5C236,-699.5 230,-705.5 224,-705.5"/>
<polyline fill="none" stroke="black" points="224,-705.5 48,-705.5 "/>
<path fill="none" stroke="black" d="M48,-705.5C42,-705.5 36,-699.5 36,-693.5"/>
<polyline fill="none" stroke="black" points="36,-693.5 36,-624.5 "/>
<path fill="none" stroke="black" d="M36,-624.5C36,-618.5 42,-612.5 48,-612.5"/>
<text text-anchor="middle" x="136" y="-690.3" font-family="Times,serif" font-size="14.00">Misc::DishSampleController</text>
<polyline fill="none" stroke="black" points="36,-682.5 236,-682.5 "/>
<text text-anchor="start" x="44" y="-667.3" font-family="Times,serif" font-size="14.00">autocomplete_dish_sample_title</text>
<polyline fill="none" stroke="black" points="36,-659.5 236,-659.5 "/>
<polyline fill="none" stroke="black" points="36,-635.5 236,-635.5 "/>
<text text-anchor="start" x="44" y="-620.3" font-family="Times,serif" font-size="14.00">_layout</text>
</g>
<!-- TableDashboardController -->
<g id="node17" class="node"><title>TableDashboardController</title>
<polyline fill="none" stroke="black" points="282,-288.5 475,-288.5 "/>
<path fill="none" stroke="black" d="M475,-288.5C481,-288.5 487,-294.5 487,-300.5"/>
<polyline fill="none" stroke="black" points="487,-300.5 487,-489.5 "/>
<path fill="none" stroke="black" d="M487,-489.5C487,-495.5 481,-501.5 475,-501.5"/>
<polyline fill="none" stroke="black" points="475,-501.5 282,-501.5 "/>
<path fill="none" stroke="black" d="M282,-501.5C276,-501.5 270,-495.5 270,-489.5"/>
<polyline fill="none" stroke="black" points="270,-489.5 270,-300.5 "/>
<path fill="none" stroke="black" d="M270,-300.5C270,-294.5 276,-288.5 282,-288.5"/>
<text text-anchor="middle" x="378.5" y="-486.3" font-family="Times,serif" font-size="14.00">TableDashboardController</text>
<polyline fill="none" stroke="black" points="270,-478.5 487,-478.5 "/>
<text text-anchor="start" x="278" y="-463.3" font-family="Times,serif" font-size="14.00">_one_time_conditions_valid_276?</text>
<text text-anchor="start" x="278" y="-448.3" font-family="Times,serif" font-size="14.00">_one_time_conditions_valid_278?</text>
<text text-anchor="start" x="278" y="-433.3" font-family="Times,serif" font-size="14.00">create_new</text>
<text text-anchor="start" x="278" y="-418.3" font-family="Times,serif" font-size="14.00">destroy</text>
<text text-anchor="start" x="278" y="-403.3" font-family="Times,serif" font-size="14.00">edit_availabilities</text>
<text text-anchor="start" x="278" y="-388.3" font-family="Times,serif" font-size="14.00">edit_table</text>
<text text-anchor="start" x="278" y="-373.3" font-family="Times,serif" font-size="14.00">index</text>
<text text-anchor="start" x="278" y="-358.3" font-family="Times,serif" font-size="14.00">manage</text>
<text text-anchor="start" x="278" y="-343.3" font-family="Times,serif" font-size="14.00">update_table</text>
<polyline fill="none" stroke="black" points="270,-335.5 487,-335.5 "/>
<polyline fill="none" stroke="black" points="270,-311.5 487,-311.5 "/>
<text text-anchor="start" x="278" y="-296.3" font-family="Times,serif" font-size="14.00">_layout</text>
</g>
<!-- TableViewController -->
<g id="node18" class="node"><title>TableViewController</title>
<polyline fill="none" stroke="black" points="786,-252.5 901,-252.5 "/>
<path fill="none" stroke="black" d="M901,-252.5C907,-252.5 913,-258.5 913,-264.5"/>
<polyline fill="none" stroke="black" points="913,-264.5 913,-348.5 "/>
<path fill="none" stroke="black" d="M913,-348.5C913,-354.5 907,-360.5 901,-360.5"/>
<polyline fill="none" stroke="black" points="901,-360.5 786,-360.5 "/>
<path fill="none" stroke="black" d="M786,-360.5C780,-360.5 774,-354.5 774,-348.5"/>
<polyline fill="none" stroke="black" points="774,-348.5 774,-264.5 "/>
<path fill="none" stroke="black" d="M774,-264.5C774,-258.5 780,-252.5 786,-252.5"/>
<text text-anchor="middle" x="843.5" y="-345.3" font-family="Times,serif" font-size="14.00">TableViewController</text>
<polyline fill="none" stroke="black" points="774,-337.5 913,-337.5 "/>
<text text-anchor="start" x="782" y="-322.3" font-family="Times,serif" font-size="14.00">show</text>
<text text-anchor="start" x="782" y="-307.3" font-family="Times,serif" font-size="14.00">table_sample</text>
<polyline fill="none" stroke="black" points="774,-299.5 913,-299.5 "/>
<polyline fill="none" stroke="black" points="774,-275.5 913,-275.5 "/>
<text text-anchor="start" x="782" y="-260.3" font-family="Times,serif" font-size="14.00">_layout</text>
</g>
</g>
</svg>
