<?xml version="1.0" encoding="UTF-8" standalone="no"?>
<!DOCTYPE svg PUBLIC "-//W3C//DTD SVG 1.1//EN"
 "http://www.w3.org/Graphics/SVG/1.1/DTD/svg11.dtd">
<!-- Generated by graphviz version 2.28.0 (20120326.2350)
 -->
<!-- Title: models_diagram Pages: 1 -->
<svg width="1175pt" height="1106pt"
 viewBox="0.00 0.00 1175.00 1106.00" xmlns="http://www.w3.org/2000/svg" xmlns:xlink="http://www.w3.org/1999/xlink">
<g id="graph1" class="graph" transform="scale(1 1) rotate(0) translate(4 1102)">
<title>models_diagram</title>
<polygon fill="white" stroke="white" points="-4,5 -4,-1102 1172,-1102 1172,5 -4,5"/>
<!-- _diagram_info -->
<g id="node1" class="node"><title>_diagram_info</title>
<text text-anchor="start" x="7.5" y="-971.6" font-family="Times,serif" font-size="13.00">Models diagram</text>
<text text-anchor="start" x="7.5" y="-957.6" font-family="Times,serif" font-size="13.00">Date: Mar 27 2012 &#45; 02:07</text>
<text text-anchor="start" x="7.5" y="-943.6" font-family="Times,serif" font-size="13.00">Migration version: 20120326222820</text>
<text text-anchor="start" x="7.5" y="-929.6" font-family="Times,serif" font-size="13.00">Generated by RailRoady 1.0.7</text>
<text text-anchor="start" x="7.5" y="-915.6" font-family="Times,serif" font-size="13.00">http://railroady.prestonlee.com</text>
</g>
<!-- Address -->
<g id="node2" class="node"><title>Address</title>
<polyline fill="none" stroke="black" points="246.5,-281 357.5,-281 "/>
<path fill="none" stroke="black" d="M357.5,-281C363.5,-281 369.5,-287 369.5,-293"/>
<polyline fill="none" stroke="black" points="369.5,-293 369.5,-495 "/>
<path fill="none" stroke="black" d="M369.5,-495C369.5,-501 363.5,-507 357.5,-507"/>
<polyline fill="none" stroke="black" points="357.5,-507 246.5,-507 "/>
<path fill="none" stroke="black" d="M246.5,-507C240.5,-507 234.5,-501 234.5,-495"/>
<polyline fill="none" stroke="black" points="234.5,-495 234.5,-293 "/>
<path fill="none" stroke="black" d="M234.5,-293C234.5,-287 240.5,-281 246.5,-281"/>
<text text-anchor="middle" x="302" y="-491.8" font-family="Times,serif" font-size="14.00">Address</text>
<polyline fill="none" stroke="black" points="234.5,-484 369.5,-484 "/>
<text text-anchor="start" x="242.5" y="-468.8" font-family="Times,serif" font-size="14.00">address1 :string</text>
<text text-anchor="start" x="242.5" y="-453.8" font-family="Times,serif" font-size="14.00">address2 :string</text>
<text text-anchor="start" x="242.5" y="-438.8" font-family="Times,serif" font-size="14.00">city :string</text>
<text text-anchor="start" x="242.5" y="-423.8" font-family="Times,serif" font-size="14.00">region :string</text>
<text text-anchor="start" x="242.5" y="-408.8" font-family="Times,serif" font-size="14.00">zipcode :string</text>
<text text-anchor="start" x="242.5" y="-393.8" font-family="Times,serif" font-size="14.00">country :string</text>
<text text-anchor="start" x="242.5" y="-378.8" font-family="Times,serif" font-size="14.00">latitude :float</text>
<text text-anchor="start" x="242.5" y="-363.8" font-family="Times,serif" font-size="14.00">longitude :float</text>
<text text-anchor="start" x="242.5" y="-348.8" font-family="Times,serif" font-size="14.00">floor :integer</text>
<text text-anchor="start" x="242.5" y="-333.8" font-family="Times,serif" font-size="14.00">code :string</text>
<text text-anchor="start" x="242.5" y="-318.8" font-family="Times,serif" font-size="14.00">code2 :string</text>
<text text-anchor="start" x="242.5" y="-303.8" font-family="Times,serif" font-size="14.00">created_at :datetime</text>
<text text-anchor="start" x="242.5" y="-288.8" font-family="Times,serif" font-size="14.00">updated_at :datetime</text>
</g>
<!-- AdminUser -->
<g id="node3" class="node"><title>AdminUser</title>
<polyline fill="none" stroke="black" points="465.5,-849 650.5,-849 "/>
<path fill="none" stroke="black" d="M650.5,-849C656.5,-849 662.5,-855 662.5,-861"/>
<polyline fill="none" stroke="black" points="662.5,-861 662.5,-1033 "/>
<path fill="none" stroke="black" d="M662.5,-1033C662.5,-1039 656.5,-1045 650.5,-1045"/>
<polyline fill="none" stroke="black" points="650.5,-1045 465.5,-1045 "/>
<path fill="none" stroke="black" d="M465.5,-1045C459.5,-1045 453.5,-1039 453.5,-1033"/>
<polyline fill="none" stroke="black" points="453.5,-1033 453.5,-861 "/>
<path fill="none" stroke="black" d="M453.5,-861C453.5,-855 459.5,-849 465.5,-849"/>
<text text-anchor="middle" x="558" y="-1029.8" font-family="Times,serif" font-size="14.00">AdminUser</text>
<polyline fill="none" stroke="black" points="453.5,-1022 662.5,-1022 "/>
<text text-anchor="start" x="461.5" y="-1006.8" font-family="Times,serif" font-size="14.00">email :string</text>
<text text-anchor="start" x="461.5" y="-991.8" font-family="Times,serif" font-size="14.00">encrypted_password :string</text>
<text text-anchor="start" x="461.5" y="-976.8" font-family="Times,serif" font-size="14.00">reset_password_token :string</text>
<text text-anchor="start" x="461.5" y="-961.8" font-family="Times,serif" font-size="14.00">reset_password_sent_at :datetime</text>
<text text-anchor="start" x="461.5" y="-946.8" font-family="Times,serif" font-size="14.00">remember_created_at :datetime</text>
<text text-anchor="start" x="461.5" y="-931.8" font-family="Times,serif" font-size="14.00">current_sign_in_at :datetime</text>
<text text-anchor="start" x="461.5" y="-916.8" font-family="Times,serif" font-size="14.00">last_sign_in_at :datetime</text>
<text text-anchor="start" x="461.5" y="-901.8" font-family="Times,serif" font-size="14.00">current_sign_in_ip :string</text>
<text text-anchor="start" x="461.5" y="-886.8" font-family="Times,serif" font-size="14.00">last_sign_in_ip :string</text>
<text text-anchor="start" x="461.5" y="-871.8" font-family="Times,serif" font-size="14.00">created_at :datetime</text>
<text text-anchor="start" x="461.5" y="-856.8" font-family="Times,serif" font-size="14.00">updated_at :datetime</text>
</g>
<!-- Availability -->
<g id="node4" class="node"><title>Availability</title>
<polyline fill="none" stroke="black" points="342.5,-68 453.5,-68 "/>
<path fill="none" stroke="black" d="M453.5,-68C459.5,-68 465.5,-74 465.5,-80"/>
<polyline fill="none" stroke="black" points="465.5,-80 465.5,-162 "/>
<path fill="none" stroke="black" d="M465.5,-162C465.5,-168 459.5,-174 453.5,-174"/>
<polyline fill="none" stroke="black" points="453.5,-174 342.5,-174 "/>
<path fill="none" stroke="black" d="M342.5,-174C336.5,-174 330.5,-168 330.5,-162"/>
<polyline fill="none" stroke="black" points="330.5,-162 330.5,-80 "/>
<path fill="none" stroke="black" d="M330.5,-80C330.5,-74 336.5,-68 342.5,-68"/>
<text text-anchor="middle" x="398" y="-158.8" font-family="Times,serif" font-size="14.00">Availability</text>
<polyline fill="none" stroke="black" points="330.5,-151 465.5,-151 "/>
<text text-anchor="start" x="338.5" y="-135.8" font-family="Times,serif" font-size="14.00">available :boolean</text>
<text text-anchor="start" x="338.5" y="-120.8" font-family="Times,serif" font-size="14.00">start :datetime</text>
<text text-anchor="start" x="338.5" y="-105.8" font-family="Times,serif" font-size="14.00">end :datetime</text>
<text text-anchor="start" x="338.5" y="-90.8" font-family="Times,serif" font-size="14.00">created_at :datetime</text>
<text text-anchor="start" x="338.5" y="-75.8" font-family="Times,serif" font-size="14.00">updated_at :datetime</text>
</g>
<!-- Dish -->
<g id="node5" class="node"><title>Dish</title>
<polyline fill="none" stroke="black" points="495.5,-0.5 684.5,-0.5 "/>
<path fill="none" stroke="black" d="M684.5,-0.5C690.5,-0.5 696.5,-6.5 696.5,-12.5"/>
<polyline fill="none" stroke="black" points="696.5,-12.5 696.5,-229.5 "/>
<path fill="none" stroke="black" d="M696.5,-229.5C696.5,-235.5 690.5,-241.5 684.5,-241.5"/>
<polyline fill="none" stroke="black" points="684.5,-241.5 495.5,-241.5 "/>
<path fill="none" stroke="black" d="M495.5,-241.5C489.5,-241.5 483.5,-235.5 483.5,-229.5"/>
<polyline fill="none" stroke="black" points="483.5,-229.5 483.5,-12.5 "/>
<path fill="none" stroke="black" d="M483.5,-12.5C483.5,-6.5 489.5,-0.5 495.5,-0.5"/>
<text text-anchor="middle" x="590" y="-226.3" font-family="Times,serif" font-size="14.00">Dish</text>
<polyline fill="none" stroke="black" points="483.5,-218.5 696.5,-218.5 "/>
<text text-anchor="start" x="491.5" y="-203.3" font-family="Times,serif" font-size="14.00">title :string</text>
<text text-anchor="start" x="491.5" y="-188.3" font-family="Times,serif" font-size="14.00">description :text</text>
<text text-anchor="start" x="491.5" y="-173.3" font-family="Times,serif" font-size="14.00">created_at :datetime</text>
<text text-anchor="start" x="491.5" y="-158.3" font-family="Times,serif" font-size="14.00">updated_at :datetime</text>
<text text-anchor="start" x="491.5" y="-143.3" font-family="Times,serif" font-size="14.00">position :integer</text>
<text text-anchor="start" x="491.5" y="-128.3" font-family="Times,serif" font-size="14.00">main_image_file_name :string</text>
<text text-anchor="start" x="491.5" y="-113.3" font-family="Times,serif" font-size="14.00">main_image_content_type :string</text>
<text text-anchor="start" x="491.5" y="-98.3" font-family="Times,serif" font-size="14.00">main_image_file_size :integer</text>
<text text-anchor="start" x="491.5" y="-83.3" font-family="Times,serif" font-size="14.00">main_image_updated_at :datetime</text>
<text text-anchor="start" x="491.5" y="-68.3" font-family="Times,serif" font-size="14.00">category :integer</text>
<text text-anchor="start" x="491.5" y="-53.3" font-family="Times,serif" font-size="14.00">image_file_name :string</text>
<text text-anchor="start" x="491.5" y="-38.3" font-family="Times,serif" font-size="14.00">image_content_type :string</text>
<text text-anchor="start" x="491.5" y="-23.3" font-family="Times,serif" font-size="14.00">image_file_size :integer</text>
<text text-anchor="start" x="491.5" y="-8.3" font-family="Times,serif" font-size="14.00">image_updated_at :datetime</text>
</g>
<!-- DishSample -->
<g id="node6" class="node"><title>DishSample</title>
<polyline fill="none" stroke="black" points="692.5,-871.5 845.5,-871.5 "/>
<path fill="none" stroke="black" d="M845.5,-871.5C851.5,-871.5 857.5,-877.5 857.5,-883.5"/>
<polyline fill="none" stroke="black" points="857.5,-883.5 857.5,-1010.5 "/>
<path fill="none" stroke="black" d="M857.5,-1010.5C857.5,-1016.5 851.5,-1022.5 845.5,-1022.5"/>
<polyline fill="none" stroke="black" points="845.5,-1022.5 692.5,-1022.5 "/>
<path fill="none" stroke="black" d="M692.5,-1022.5C686.5,-1022.5 680.5,-1016.5 680.5,-1010.5"/>
<polyline fill="none" stroke="black" points="680.5,-1010.5 680.5,-883.5 "/>
<path fill="none" stroke="black" d="M680.5,-883.5C680.5,-877.5 686.5,-871.5 692.5,-871.5"/>
<text text-anchor="middle" x="769" y="-1007.3" font-family="Times,serif" font-size="14.00">DishSample</text>
<polyline fill="none" stroke="black" points="680.5,-999.5 857.5,-999.5 "/>
<text text-anchor="start" x="688.5" y="-984.3" font-family="Times,serif" font-size="14.00">title :string</text>
<text text-anchor="start" x="688.5" y="-969.3" font-family="Times,serif" font-size="14.00">description :text</text>
<text text-anchor="start" x="688.5" y="-954.3" font-family="Times,serif" font-size="14.00">created_at :datetime</text>
<text text-anchor="start" x="688.5" y="-939.3" font-family="Times,serif" font-size="14.00">updated_at :datetime</text>
<text text-anchor="start" x="688.5" y="-924.3" font-family="Times,serif" font-size="14.00">image_file_name :string</text>
<text text-anchor="start" x="688.5" y="-909.3" font-family="Times,serif" font-size="14.00">image_content_type :string</text>
<text text-anchor="start" x="688.5" y="-894.3" font-family="Times,serif" font-size="14.00">image_file_size :integer</text>
<text text-anchor="start" x="688.5" y="-879.3" font-family="Times,serif" font-size="14.00">image_updated_at :datetime</text>
</g>
<!-- Menu -->
<g id="node7" class="node"><title>Menu</title>
<polyline fill="none" stroke="black" points="399.5,-281 588.5,-281 "/>
<path fill="none" stroke="black" d="M588.5,-281C594.5,-281 600.5,-287 600.5,-293"/>
<polyline fill="none" stroke="black" points="600.5,-293 600.5,-495 "/>
<path fill="none" stroke="black" d="M600.5,-495C600.5,-501 594.5,-507 588.5,-507"/>
<polyline fill="none" stroke="black" points="588.5,-507 399.5,-507 "/>
<path fill="none" stroke="black" d="M399.5,-507C393.5,-507 387.5,-501 387.5,-495"/>
<polyline fill="none" stroke="black" points="387.5,-495 387.5,-293 "/>
<path fill="none" stroke="black" d="M387.5,-293C387.5,-287 393.5,-281 399.5,-281"/>
<text text-anchor="middle" x="494" y="-491.8" font-family="Times,serif" font-size="14.00">Menu</text>
<polyline fill="none" stroke="black" points="387.5,-484 600.5,-484 "/>
<text text-anchor="start" x="395.5" y="-468.8" font-family="Times,serif" font-size="14.00">status :integer</text>
<text text-anchor="start" x="395.5" y="-453.8" font-family="Times,serif" font-size="14.00">title :string</text>
<text text-anchor="start" x="395.5" y="-438.8" font-family="Times,serif" font-size="14.00">price :integer</text>
<text text-anchor="start" x="395.5" y="-423.8" font-family="Times,serif" font-size="14.00">option :text</text>
<text text-anchor="start" x="395.5" y="-408.8" font-family="Times,serif" font-size="14.00">description :text</text>
<text text-anchor="start" x="395.5" y="-393.8" font-family="Times,serif" font-size="14.00">participation_cooking :boolean</text>
<text text-anchor="start" x="395.5" y="-378.8" font-family="Times,serif" font-size="14.00">created_at :datetime</text>
<text text-anchor="start" x="395.5" y="-363.8" font-family="Times,serif" font-size="14.00">updated_at :datetime</text>
<text text-anchor="start" x="395.5" y="-348.8" font-family="Times,serif" font-size="14.00">main_image_file_name :string</text>
<text text-anchor="start" x="395.5" y="-333.8" font-family="Times,serif" font-size="14.00">main_image_content_type :string</text>
<text text-anchor="start" x="395.5" y="-318.8" font-family="Times,serif" font-size="14.00">main_image_file_size :integer</text>
<text text-anchor="start" x="395.5" y="-303.8" font-family="Times,serif" font-size="14.00">main_image_updated_at :datetime</text>
<text text-anchor="start" x="395.5" y="-288.8" font-family="Times,serif" font-size="14.00">category :integer</text>
</g>
<!-- Menu&#45;&gt;Availability -->
<g id="edge4" class="edge"><title>Menu&#45;&gt;Availability</title>
<path fill="none" stroke="#429a99" d="M451.485,-272.985C440.555,-242.129 429.24,-210.188 419.848,-183.675"/>
<ellipse fill="none" stroke="#429a99" cx="452.924" cy="-277.047" rx="4.00001" ry="4.00001"/>
<polygon fill="#429a99" stroke="#429a99" points="419.818,-183.591 420.721,-172.662 418.149,-178.878 416.479,-174.165 416.479,-174.165 416.479,-174.165 418.149,-178.878 412.237,-175.668 419.818,-183.591 419.818,-183.591"/>
</g>
<!-- Menu&#45;&gt;Dish -->
<g id="edge2" class="edge"><title>Menu&#45;&gt;Dish</title>
<path fill="none" stroke="#11cf86" d="M536.44,-273.194C538.999,-265.972 541.579,-258.689 544.15,-251.43"/>
<ellipse fill="none" stroke="#11cf86" cx="535.076" cy="-277.047" rx="4.00001" ry="4.00001"/>
<polygon fill="#11cf86" stroke="#11cf86" points="544.31,-250.979 551.891,-243.055 545.98,-246.265 547.649,-241.552 547.649,-241.552 547.649,-241.552 545.98,-246.265 543.408,-240.05 544.31,-250.979 544.31,-250.979"/>
</g>
<!-- Static::ReferenceData -->
<g id="node8" class="node"><title>Static::ReferenceData</title>
<polygon fill="none" stroke="black" points="875.5,-924 875.5,-970 1014.5,-970 1014.5,-924 875.5,-924"/>
<text text-anchor="middle" x="945" y="-954.8" font-family="Times,serif" font-size="14.00">Static::ReferenceData</text>
<polyline fill="none" stroke="black" points="875.5,-947 1014.5,-947 "/>
<text text-anchor="middle" x="945" y="-931.8" font-family="Times,serif" font-size="14.00"> </text>
</g>
<!-- Table -->
<g id="node9" class="node"><title>Table</title>
<polyline fill="none" stroke="black" points="236.5,-561 425.5,-561 "/>
<path fill="none" stroke="black" d="M425.5,-561C431.5,-561 437.5,-567 437.5,-573"/>
<polyline fill="none" stroke="black" points="437.5,-573 437.5,-745 "/>
<path fill="none" stroke="black" d="M437.5,-745C437.5,-751 431.5,-757 425.5,-757"/>
<polyline fill="none" stroke="black" points="425.5,-757 236.5,-757 "/>
<path fill="none" stroke="black" d="M236.5,-757C230.5,-757 224.5,-751 224.5,-745"/>
<polyline fill="none" stroke="black" points="224.5,-745 224.5,-573 "/>
<path fill="none" stroke="black" d="M224.5,-573C224.5,-567 230.5,-561 236.5,-561"/>
<text text-anchor="middle" x="331" y="-741.8" font-family="Times,serif" font-size="14.00">Table</text>
<polyline fill="none" stroke="black" points="224.5,-734 437.5,-734 "/>
<text text-anchor="start" x="232.5" y="-718.8" font-family="Times,serif" font-size="14.00">title :string</text>
<text text-anchor="start" x="232.5" y="-703.8" font-family="Times,serif" font-size="14.00">description :text</text>
<text text-anchor="start" x="232.5" y="-688.8" font-family="Times,serif" font-size="14.00">capacity :integer</text>
<text text-anchor="start" x="232.5" y="-673.8" font-family="Times,serif" font-size="14.00">table_available :boolean</text>
<text text-anchor="start" x="232.5" y="-658.8" font-family="Times,serif" font-size="14.00">theme :string</text>
<text text-anchor="start" x="232.5" y="-643.8" font-family="Times,serif" font-size="14.00">created_at :datetime</text>
<text text-anchor="start" x="232.5" y="-628.8" font-family="Times,serif" font-size="14.00">updated_at :datetime</text>
<text text-anchor="start" x="232.5" y="-613.8" font-family="Times,serif" font-size="14.00">main_image_file_name :string</text>
<text text-anchor="start" x="232.5" y="-598.8" font-family="Times,serif" font-size="14.00">main_image_content_type :string</text>
<text text-anchor="start" x="232.5" y="-583.8" font-family="Times,serif" font-size="14.00">main_image_file_size :integer</text>
<text text-anchor="start" x="232.5" y="-568.8" font-family="Times,serif" font-size="14.00">main_image_updated_at :datetime</text>
</g>
<!-- Table&#45;&gt;Address -->
<g id="edge8" class="edge"><title>Table&#45;&gt;Address</title>
<path fill="none" stroke="#8b6f09" d="M319.377,-552.595C318.03,-540.379 316.649,-527.85 315.282,-515.453"/>
<ellipse fill="none" stroke="#8b6f09" cx="319.845" cy="-556.84" rx="4.00001" ry="4.00001"/>
<ellipse fill="#8b6f09" stroke="#8b6f09" cx="314.825" cy="-511.306" rx="4.00001" ry="4.00001"/>
<text text-anchor="middle" x="338.5" y="-530.3" font-family="Times,serif" font-size="14.00">address</text>
</g>
<!-- Table&#45;&gt;Menu -->
<g id="edge6" class="edge"><title>Table&#45;&gt;Menu</title>
<path fill="none" stroke="#fe1b48" d="M395.558,-553.835C403.252,-541.422 411.156,-528.668 418.981,-516.043"/>
<ellipse fill="none" stroke="#fe1b48" cx="393.339" cy="-557.416" rx="4.00002" ry="4.00002"/>
<polygon fill="#fe1b48" stroke="#fe1b48" points="419.113,-515.83 428.206,-509.7 421.747,-511.58 424.381,-507.33 424.381,-507.33 424.381,-507.33 421.747,-511.58 420.556,-504.959 419.113,-515.83 419.113,-515.83"/>
</g>
<!-- User -->
<g id="node10" class="node"><title>User</title>
<polyline fill="none" stroke="black" points="238.5,-796.5 423.5,-796.5 "/>
<path fill="none" stroke="black" d="M423.5,-796.5C429.5,-796.5 435.5,-802.5 435.5,-808.5"/>
<polyline fill="none" stroke="black" points="435.5,-808.5 435.5,-1085.5 "/>
<path fill="none" stroke="black" d="M435.5,-1085.5C435.5,-1091.5 429.5,-1097.5 423.5,-1097.5"/>
<polyline fill="none" stroke="black" points="423.5,-1097.5 238.5,-1097.5 "/>
<path fill="none" stroke="black" d="M238.5,-1097.5C232.5,-1097.5 226.5,-1091.5 226.5,-1085.5"/>
<polyline fill="none" stroke="black" points="226.5,-1085.5 226.5,-808.5 "/>
<path fill="none" stroke="black" d="M226.5,-808.5C226.5,-802.5 232.5,-796.5 238.5,-796.5"/>
<text text-anchor="middle" x="331" y="-1082.3" font-family="Times,serif" font-size="14.00">User</text>
<polyline fill="none" stroke="black" points="226.5,-1074.5 435.5,-1074.5 "/>
<text text-anchor="start" x="234.5" y="-1059.3" font-family="Times,serif" font-size="14.00">f_name :string</text>
<text text-anchor="start" x="234.5" y="-1044.3" font-family="Times,serif" font-size="14.00">l_name :string</text>
<text text-anchor="start" x="234.5" y="-1029.3" font-family="Times,serif" font-size="14.00">phone :string</text>
<text text-anchor="start" x="234.5" y="-1014.3" font-family="Times,serif" font-size="14.00">lang :text</text>
<text text-anchor="start" x="234.5" y="-999.3" font-family="Times,serif" font-size="14.00">age :integer</text>
<text text-anchor="start" x="234.5" y="-984.3" font-family="Times,serif" font-size="14.00">description :text</text>
<text text-anchor="start" x="234.5" y="-969.3" font-family="Times,serif" font-size="14.00">job :string</text>
<text text-anchor="start" x="234.5" y="-954.3" font-family="Times,serif" font-size="14.00">created_at :datetime</text>
<text text-anchor="start" x="234.5" y="-939.3" font-family="Times,serif" font-size="14.00">updated_at :datetime</text>
<text text-anchor="start" x="234.5" y="-924.3" font-family="Times,serif" font-size="14.00">email :string</text>
<text text-anchor="start" x="234.5" y="-909.3" font-family="Times,serif" font-size="14.00">encrypted_password :string</text>
<text text-anchor="start" x="234.5" y="-894.3" font-family="Times,serif" font-size="14.00">reset_password_token :string</text>
<text text-anchor="start" x="234.5" y="-879.3" font-family="Times,serif" font-size="14.00">reset_password_sent_at :datetime</text>
<text text-anchor="start" x="234.5" y="-864.3" font-family="Times,serif" font-size="14.00">remember_created_at :datetime</text>
<text text-anchor="start" x="234.5" y="-849.3" font-family="Times,serif" font-size="14.00">current_sign_in_at :datetime</text>
<text text-anchor="start" x="234.5" y="-834.3" font-family="Times,serif" font-size="14.00">last_sign_in_at :datetime</text>
<text text-anchor="start" x="234.5" y="-819.3" font-family="Times,serif" font-size="14.00">current_sign_in_ip :string</text>
<text text-anchor="start" x="234.5" y="-804.3" font-family="Times,serif" font-size="14.00">last_sign_in_ip :string</text>
</g>
<!-- User&#45;&gt;Table -->
<g id="edge10" class="edge"><title>User&#45;&gt;Table</title>
<path fill="none" stroke="#95514b" d="M331,-788.241C331,-781.177 331,-774.161 331,-767.263"/>
<ellipse fill="none" stroke="#95514b" cx="331" cy="-792.299" rx="4" ry="4"/>
<polygon fill="#95514b" stroke="#95514b" points="331,-767.251 335.5,-757.251 331,-762.251 331,-757.251 331,-757.251 331,-757.251 331,-762.251 326.5,-757.251 331,-767.251 331,-767.251"/>
</g>
<!-- UserTable -->
<g id="node11" class="node"><title>UserTable</title>
<polyline fill="none" stroke="black" points="1044.5,-909 1155.5,-909 "/>
<path fill="none" stroke="black" d="M1155.5,-909C1161.5,-909 1167.5,-915 1167.5,-921"/>
<polyline fill="none" stroke="black" points="1167.5,-921 1167.5,-973 "/>
<path fill="none" stroke="black" d="M1167.5,-973C1167.5,-979 1161.5,-985 1155.5,-985"/>
<polyline fill="none" stroke="black" points="1155.5,-985 1044.5,-985 "/>
<path fill="none" stroke="black" d="M1044.5,-985C1038.5,-985 1032.5,-979 1032.5,-973"/>
<polyline fill="none" stroke="black" points="1032.5,-973 1032.5,-921 "/>
<path fill="none" stroke="black" d="M1032.5,-921C1032.5,-915 1038.5,-909 1044.5,-909"/>
<text text-anchor="middle" x="1100" y="-969.8" font-family="Times,serif" font-size="14.00">UserTable</text>
<polyline fill="none" stroke="black" points="1032.5,-962 1167.5,-962 "/>
<text text-anchor="start" x="1040.5" y="-946.8" font-family="Times,serif" font-size="14.00">status :integer</text>
<text text-anchor="start" x="1040.5" y="-931.8" font-family="Times,serif" font-size="14.00">created_at :datetime</text>
<text text-anchor="start" x="1040.5" y="-916.8" font-family="Times,serif" font-size="14.00">updated_at :datetime</text>
</g>
</g>
</svg>
