<?xml version="1.0" encoding="UTF-8" standalone="no"?>
<!DOCTYPE svg PUBLIC "-//W3C//DTD SVG 1.1//EN"
 "http://www.w3.org/Graphics/SVG/1.1/DTD/svg11.dtd">
<!-- Generated by graphviz version 2.28.0 (20120326.2350)
 -->
<!-- Title: models_diagram Pages: 1 -->
<svg width="819pt" height="322pt"
 viewBox="0.00 0.00 819.00 322.00" xmlns="http://www.w3.org/2000/svg" xmlns:xlink="http://www.w3.org/1999/xlink">
<g id="graph1" class="graph" transform="scale(1 1) rotate(0) translate(4 318)">
<title>models_diagram</title>
<polygon fill="white" stroke="white" points="-4,5 -4,-318 816,-318 816,5 -4,5"/>
<!-- _diagram_info -->
<g id="node1" class="node"><title>_diagram_info</title>
<text text-anchor="start" x="7.5" y="-299.6" font-family="Times,serif" font-size="13.00">Models diagram</text>
<text text-anchor="start" x="7.5" y="-285.6" font-family="Times,serif" font-size="13.00">Date: Mar 27 2012 &#45; 02:08</text>
<text text-anchor="start" x="7.5" y="-271.6" font-family="Times,serif" font-size="13.00">Migration version: 20120326222820</text>
<text text-anchor="start" x="7.5" y="-257.6" font-family="Times,serif" font-size="13.00">Generated by RailRoady 1.0.7</text>
<text text-anchor="start" x="7.5" y="-243.6" font-family="Times,serif" font-size="13.00">http://railroady.prestonlee.com</text>
</g>
<!-- Address -->
<g id="node2" class="node"><title>Address</title>
<ellipse fill="none" stroke="black" cx="226" cy="-92" rx="41.394" ry="18"/>
<text text-anchor="middle" x="226" y="-88.3" font-family="Times,serif" font-size="14.00">Address</text>
</g>
<!-- AdminUser -->
<g id="node3" class="node"><title>AdminUser</title>
<ellipse fill="none" stroke="black" cx="356" cy="-275" rx="54.3924" ry="18"/>
<text text-anchor="middle" x="356" y="-271.3" font-family="Times,serif" font-size="14.00">AdminUser</text>
</g>
<!-- Availability -->
<g id="node4" class="node"><title>Availability</title>
<ellipse fill="none" stroke="black" cx="268" cy="-18" rx="53.4184" ry="18"/>
<text text-anchor="middle" x="268" y="-14.3" font-family="Times,serif" font-size="14.00">Availability</text>
</g>
<!-- Dish -->
<g id="node5" class="node"><title>Dish</title>
<ellipse fill="none" stroke="black" cx="369" cy="-18" rx="28.3955" ry="18"/>
<text text-anchor="middle" x="369" y="-14.3" font-family="Times,serif" font-size="14.00">Dish</text>
</g>
<!-- DishSample -->
<g id="node6" class="node"><title>DishSample</title>
<ellipse fill="none" stroke="black" cx="484" cy="-275" rx="55.3436" ry="18"/>
<text text-anchor="middle" x="484" y="-271.3" font-family="Times,serif" font-size="14.00">DishSample</text>
</g>
<!-- Menu -->
<g id="node7" class="node"><title>Menu</title>
<ellipse fill="none" stroke="black" cx="318" cy="-92" rx="32.2457" ry="18"/>
<text text-anchor="middle" x="318" y="-88.3" font-family="Times,serif" font-size="14.00">Menu</text>
</g>
<!-- Menu&#45;&gt;Availability -->
<g id="edge4" class="edge"><title>Menu&#45;&gt;Availability</title>
<path fill="none" stroke="#5e4743" d="M302.285,-68.3703C296.887,-60.5966 290.815,-51.8533 285.298,-43.9087"/>
<ellipse fill="none" stroke="#5e4743" cx="304.622" cy="-71.7354" rx="4.00002" ry="4.00002"/>
<polygon fill="#5e4743" stroke="#5e4743" points="285.291,-43.8988 283.283,-33.1183 282.439,-39.7919 279.587,-35.6851 279.587,-35.6851 279.587,-35.6851 282.439,-39.7919 275.891,-38.2519 285.291,-43.8988 285.291,-43.8988"/>
</g>
<!-- Menu&#45;&gt;Dish -->
<g id="edge2" class="edge"><title>Menu&#45;&gt;Dish</title>
<path fill="none" stroke="#cb35c8" d="M334.134,-68.2222C339.767,-60.2706 346.107,-51.3194 351.821,-43.2522"/>
<ellipse fill="none" stroke="#cb35c8" cx="331.631" cy="-71.7568" rx="4.00002" ry="4.00002"/>
<polygon fill="#cb35c8" stroke="#cb35c8" points="351.933,-43.0947 361.385,-37.5356 354.823,-39.0146 357.713,-34.9345 357.713,-34.9345 357.713,-34.9345 354.823,-39.0146 354.041,-32.3334 351.933,-43.0947 351.933,-43.0947"/>
</g>
<!-- Static::ReferenceData -->
<g id="node8" class="node"><title>Static::ReferenceData</title>
<polygon fill="none" stroke="black" points="696.25,-293 557.75,-293 557.75,-257 696.25,-257 696.25,-293"/>
<text text-anchor="middle" x="627" y="-271.3" font-family="Times,serif" font-size="14.00">Static::ReferenceData</text>
</g>
<!-- Table -->
<g id="node9" class="node"><title>Table</title>
<ellipse fill="none" stroke="black" cx="255" cy="-180" rx="31.2965" ry="18"/>
<text text-anchor="middle" x="255" y="-176.3" font-family="Times,serif" font-size="14.00">Table</text>
</g>
<!-- Table&#45;&gt;Address -->
<g id="edge8" class="edge"><title>Table&#45;&gt;Address</title>
<path fill="none" stroke="#d96e39" d="M246.603,-154.097C242.757,-142.695 238.212,-129.216 234.371,-117.823"/>
<ellipse fill="none" stroke="#d96e39" cx="247.992" cy="-158.219" rx="4.00001" ry="4.00001"/>
<ellipse fill="#d96e39" stroke="#d96e39" cx="232.996" cy="-113.746" rx="4.00001" ry="4.00001"/>
<text text-anchor="middle" x="264.5" y="-132.3" font-family="Times,serif" font-size="14.00">address</text>
</g>
<!-- Table&#45;&gt;Menu -->
<g id="edge6" class="edge"><title>Table&#45;&gt;Menu</title>
<path fill="none" stroke="#c24d8c" d="M275.676,-157.698C279.597,-153.3 283.549,-148.603 287,-144 293.026,-135.964 298.933,-126.701 303.948,-118.293"/>
<ellipse fill="none" stroke="#c24d8c" cx="272.716" cy="-160.931" rx="4.00002" ry="4.00002"/>
<polygon fill="#c24d8c" stroke="#c24d8c" points="303.974,-118.247 312.892,-111.866 306.488,-113.925 309.002,-109.603 309.002,-109.603 309.002,-109.603 306.488,-113.925 305.112,-107.341 303.974,-118.247 303.974,-118.247"/>
</g>
<!-- User -->
<g id="node10" class="node"><title>User</title>
<ellipse fill="none" stroke="black" cx="255" cy="-275" rx="28.3955" ry="18"/>
<text text-anchor="middle" x="255" y="-271.3" font-family="Times,serif" font-size="14.00">User</text>
</g>
<!-- User&#45;&gt;Table -->
<g id="edge10" class="edge"><title>User&#45;&gt;Table</title>
<path fill="none" stroke="#171ecb" d="M255,-248.562C255,-236.078 255,-221.025 255,-208.299"/>
<ellipse fill="none" stroke="#171ecb" cx="255" cy="-252.942" rx="4" ry="4"/>
<polygon fill="#171ecb" stroke="#171ecb" points="255,-208.264 259.5,-198.264 255,-203.264 255,-198.264 255,-198.264 255,-198.264 255,-203.264 250.5,-198.264 255,-208.264 255,-208.264"/>
</g>
<!-- UserTable -->
<g id="node11" class="node"><title>UserTable</title>
<ellipse fill="none" stroke="black" cx="763" cy="-275" rx="48.6179" ry="18"/>
<text text-anchor="middle" x="763" y="-271.3" font-family="Times,serif" font-size="14.00">UserTable</text>
</g>
</g>
</svg>
